<svg width="64" height="64" fill="none" xmlns="http://www.w3.org/2000/svg"><g clip-path="url(#clip0)" fill="#374151"><path d="M10.96 52.102a.942.942 0 00-.94.94.943.943 0 00.94.939.943.943 0 00.939-.94.943.943 0 00-.94-.939z"/><path d="M62.397 42.358l-7.31 7.31a3.922 3.922 0 00-2.046-.572c-.747 0-1.447.21-2.044.572l-1.598-1.597c.912-1.532.657-3.594-.697-4.948l-3.649-3.649a10.5 10.5 0 01-3.096-7.473 10.5 10.5 0 013.096-7.474l3.65-3.65c1.353-1.353 1.608-3.415.696-4.947l1.598-1.598a3.922 3.922 0 002.044.573c.748 0 1.448-.21 2.045-.573l7.31 7.311a.936.936 0 001.33 0 .94.94 0 000-1.328l-7.312-7.31a3.921 3.921 0 00.573-2.046 3.95 3.95 0 00-3.946-3.945c-.747 0-1.447.21-2.044.572l-7.31-7.31a.94.94 0 10-1.33 1.328l7.312 7.31a3.92 3.92 0 00-.573 2.046c0 .747.21 1.447.573 2.044L48.072 14.6a3.94 3.94 0 00-4.834.584l-3.764 3.764A10.5 10.5 0 0132 22.044a10.5 10.5 0 01-7.473-3.096l-3.764-3.764a3.918 3.918 0 00-2.79-1.156c-.729 0-1.434.202-2.044.573l-1.597-1.597a3.923 3.923 0 00.572-2.044c0-.749-.209-1.449-.572-2.045l7.311-7.31a.94.94 0 00-1.328-1.33l-7.311 7.312a3.922 3.922 0 00-2.045-.573 3.95 3.95 0 00-3.945 3.946c0 .748.21 1.447.572 2.044l-7.31 7.31a.94.94 0 101.328 1.33l7.31-7.312a3.922 3.922 0 002.045.572c.748 0 1.448-.209 2.045-.572l1.598 1.598c-.913 1.532-.657 3.594.697 4.947l3.649 3.65A10.5 10.5 0 0122.044 32a10.5 10.5 0 01-3.096 7.473l-3.65 3.65c-1.353 1.353-1.609 3.415-.696 4.947l-1.598 1.598a3.922 3.922 0 00-2.045-.573 3.92 3.92 0 00-2.044.573l-7.311-7.311a.94.94 0 10-1.328 1.328l7.31 7.311a3.922 3.922 0 00-.572 2.045 3.95 3.95 0 003.945 3.945 3.92 3.92 0 002.045-.573l7.31 7.311a.936.936 0 001.329 0 .94.94 0 000-1.328l-7.31-7.31a3.923 3.923 0 00.571-2.045c0-.748-.209-1.449-.572-2.045l1.596-1.596a3.94 3.94 0 004.834-.584l3.765-3.764A10.5 10.5 0 0132 41.958a10.5 10.5 0 017.474 3.095l3.764 3.764a3.939 3.939 0 004.834.584l1.596 1.596a3.923 3.923 0 00-.572 2.044c0 .748.21 1.448.572 2.045l-7.31 7.31a.94.94 0 101.328 1.33l7.31-7.312a3.922 3.922 0 002.045.573 3.95 3.95 0 003.945-3.946c0-.747-.209-1.447-.572-2.044l7.31-7.31a.94.94 0 10-1.327-1.33zM53.042 8.893c1.139 0 2.066.927 2.066 2.066 0 1.14-.927 2.067-2.066 2.067a2.069 2.069 0 01-2.067-2.066c0-1.14.927-2.067 2.066-2.067zm-44.15 2.066c0-1.14.928-2.066 2.067-2.066 1.14 0 2.067.927 2.067 2.066 0 1.14-.927 2.067-2.067 2.067a2.069 2.069 0 01-2.066-2.066zm2.067 44.15a2.069 2.069 0 01-2.066-2.067c0-1.14.927-2.067 2.066-2.067 1.14 0 2.067.927 2.067 2.067 0 1.139-.927 2.066-2.067 2.066zm33.608-7.62l-3.764-3.764a12.355 12.355 0 00-7.863-3.611v-5.107a.94.94 0 10-1.879 0v5.107a12.356 12.356 0 00-7.863 3.61l-3.764 3.765c-.39.39-.909.606-1.461.606a2.07 2.07 0 01-1.57-.724c-.687-.799-.587-2.108.224-2.92l3.65-3.648a12.355 12.355 0 003.61-7.863h5.107a.94.94 0 000-1.879h-5.107a12.355 12.355 0 00-3.61-7.863l-3.65-3.649c-.81-.81-.911-2.12-.224-2.92a2.07 2.07 0 011.57-.722c.552 0 1.07.215 1.461.605l3.764 3.764a12.355 12.355 0 007.863 3.612v5.107a.94.94 0 001.879 0v-5.107a12.356 12.356 0 007.863-3.612l3.764-3.764c.39-.39.909-.605 1.46-.605a2.07 2.07 0 011.57.723c.688.799.588 2.108-.223 2.92l-3.65 3.648a12.355 12.355 0 00-3.61 7.863h-5.108a.94.94 0 100 1.879h5.108a12.355 12.355 0 003.61 7.863l3.65 3.649c.81.81.911 2.12.224 2.92a2.07 2.07 0 01-1.57.722c-.552 0-1.07-.215-1.461-.605zm8.474 7.62a2.069 2.069 0 01-2.066-2.067c0-1.14.927-2.067 2.066-2.067 1.14 0 2.067.927 2.067 2.067 0 1.139-.927 2.066-2.066 2.066z"/><path d="M53.041 52.102a.943.943 0 00-.939.94.943.943 0 00.94.939.943.943 0 00.939-.94.943.943 0 00-.94-.939zM53.041 11.899a.943.943 0 00.94-.94.94.94 0 00-1.603-.663.94.94 0 00.663 1.603zM10.96 10.02a.942.942 0 00-.94.94.942.942 0 00.94.939.942.942 0 00.939-.94.942.942 0 00-.94-.939z"/></g><defs><clipPath id="clip0"><path fill="#374151" d="M0 0h64v64H0z"/></clipPath></defs></svg>