<svg width="40" height="40" fill="none" xmlns="http://www.w3.org/2000/svg"><g clip-path="url(#clip0)" fill="#fff"><path d="M30.697 28.415l-5.94 5.94a3.187 3.187 0 00-1.661-.464c-.608 0-1.177.17-1.661.464l-1.298-1.298c.74-1.245.533-2.92-.567-4.02l-2.965-2.964A8.532 8.532 0 0114.09 20c0-2.294.893-4.45 2.515-6.072l2.965-2.965c1.1-1.1 1.308-2.775.567-4.02l1.298-1.298a3.187 3.187 0 001.661.465c.608 0 1.177-.17 1.661-.465l5.94 5.94a.76.76 0 001.08 0 .763.763 0 000-1.08l-5.94-5.94a3.186 3.186 0 00.465-1.66 3.21 3.21 0 00-3.206-3.206c-.608 0-1.177.17-1.661.465l-5.94-5.94a.763.763 0 10-1.08 1.079l5.94 5.94a3.186 3.186 0 00-.465 1.661c0 .608.17 1.177.465 1.661l-1.297 1.298a3.2 3.2 0 00-3.927.474l-3.059 3.058A8.532 8.532 0 016 11.91 8.531 8.531 0 01-.072 9.395L-3.13 6.337a3.2 3.2 0 00-3.928-.474l-1.297-1.297a3.187 3.187 0 00.465-1.662c0-.608-.17-1.176-.465-1.661l5.94-5.94a.763.763 0 10-1.08-1.08l-5.94 5.94a3.187 3.187 0 00-1.66-.464 3.21 3.21 0 00-3.206 3.205c0 .608.17 1.177.465 1.661l-5.94 5.94a.763.763 0 001.079 1.08l5.94-5.94a3.186 3.186 0 001.661.465c.608 0 1.177-.17 1.661-.465l1.299 1.298c-.742 1.245-.534 2.92.566 4.02l2.965 2.965A8.532 8.532 0 01-2.09 20c0 2.294-.893 4.45-2.515 6.073l-2.965 2.965c-1.1 1.1-1.308 2.774-.566 4.02l-1.299 1.297a3.187 3.187 0 00-1.66-.464c-.609 0-1.177.17-1.662.465l-5.94-5.94a.763.763 0 00-1.08 1.079l5.94 5.94a3.187 3.187 0 00-.464 1.661 3.21 3.21 0 003.205 3.206c.608 0 1.177-.17 1.661-.465l5.94 5.94a.761.761 0 001.08 0 .763.763 0 000-1.08l-5.94-5.94a3.187 3.187 0 00.465-1.66c0-.609-.17-1.178-.465-1.662l1.297-1.297a3.201 3.201 0 003.927-.474l3.059-3.059A8.532 8.532 0 016 28.09c2.294 0 4.45.893 6.072 2.515l3.059 3.059a3.2 3.2 0 003.928.474l1.296 1.297a3.186 3.186 0 00-.465 1.661c0 .608.17 1.177.465 1.661l-5.94 5.94a.763.763 0 001.08 1.08l5.94-5.94a3.187 3.187 0 001.66.464 3.21 3.21 0 003.206-3.205c0-.608-.17-1.176-.465-1.661l5.94-5.94a.763.763 0 00-1.079-1.08zm-7.601-27.19c.926 0 1.68.753 1.68 1.68 0 .925-.754 1.678-1.68 1.678-.926 0-1.68-.753-1.68-1.679s.754-1.679 1.68-1.679zm-35.871 1.68c0-.927.753-1.68 1.68-1.68.925 0 1.678.753 1.678 1.68 0 .925-.753 1.678-1.679 1.678s-1.679-.753-1.679-1.679zm1.68 35.87c-.927 0-1.68-.753-1.68-1.679s.753-1.679 1.68-1.679c.925 0 1.678.753 1.678 1.68 0 .925-.753 1.678-1.679 1.678zm27.305-6.19l-3.058-3.059a10.039 10.039 0 00-6.389-2.934v-4.15a.763.763 0 10-1.526 0v4.15a10.039 10.039 0 00-6.389 2.934l-3.058 3.059a1.682 1.682 0 01-2.462-.096c-.56-.65-.478-1.713.181-2.372l2.965-2.965a10.039 10.039 0 002.934-6.389h4.15a.763.763 0 000-1.526h-4.15a10.038 10.038 0 00-2.934-6.388L-6.49 9.883c-.659-.66-.74-1.723-.182-2.373a1.682 1.682 0 012.463-.095l3.058 3.058a10.038 10.038 0 006.389 2.934v4.15a.763.763 0 001.526 0v-4.15a10.039 10.039 0 006.389-2.934l3.059-3.058a1.682 1.682 0 012.462.096c.559.649.477 1.713-.182 2.372l-2.965 2.964a10.038 10.038 0 00-2.934 6.389h-4.15a.763.763 0 000 1.527h4.15a10.038 10.038 0 002.934 6.388l2.965 2.965c.659.659.74 1.723.182 2.372a1.682 1.682 0 01-2.463.096zm6.886 6.19c-.926 0-1.68-.753-1.68-1.679s.754-1.679 1.68-1.679c.926 0 1.68.753 1.68 1.68 0 .925-.754 1.678-1.68 1.678z"/><path d="M23.095 36.333a.766.766 0 00-.763.763.766.766 0 00.763.763.766.766 0 00.764-.763.766.766 0 00-.764-.763zM23.095 3.667a.766.766 0 00.764-.763.765.765 0 00-1.303-.54.764.764 0 00.54 1.303z"/><circle cx="24" cy="16" r="1"/><rect x="26" y="15" width="12" height="2" rx="1"/><circle cx="24" cy="20" r="1"/><rect x="26" y="19" width="12" height="2" rx="1"/><circle cx="24" cy="24" r="1"/><rect x="26" y="23" width="12" height="2" rx="1"/></g><defs><clipPath id="clip0"><path fill="#fff" d="M0 0h40v40H0z"/></clipPath></defs></svg>