<svg width="40" height="40" fill="none" xmlns="http://www.w3.org/2000/svg"><path d="M38.16 33.19a.587.587 0 00-.586.587v3.797h-3.797a.587.587 0 000 1.174h4.384a.587.587 0 00.587-.587v-4.384a.587.587 0 00-.587-.587zM6.224 37.574H2.427v-3.797a.587.587 0 00-1.174 0v4.384c0 .324.263.587.587.587h4.384a.587.587 0 000-1.174zM33.776 2.427h3.797v3.796a.587.587 0 001.174 0V1.84a.587.587 0 00-.587-.588h-4.383a.587.587 0 000 1.175zM1.84 6.81a.587.587 0 00.587-.588V2.426h3.796a.587.587 0 000-1.174H1.84a.587.587 0 00-.588.587v4.383c0 .325.263.588.588.588zM20 5.01C11.734 5.01 5.01 11.734 5.01 20S11.734 34.99 20 34.99 34.99 28.266 34.99 20 28.266 5.01 20 5.01zm.587 28.793v-1.905a.587.587 0 00-1.174 0v1.905c-7.152-.3-12.915-6.064-13.216-13.216h1.905a.587.587 0 000-1.174H6.197c.3-7.152 6.064-12.915 13.216-13.216v1.905a.587.587 0 001.174 0V6.197c7.152.3 12.915 6.064 13.216 13.216h-1.905a.587.587 0 000 1.174h1.905c-.3 7.152-6.064 12.915-13.216 13.216z" fill="#fff"/><path d="M13.111 19.413h-2.504a.587.587 0 000 1.174h2.505a.587.587 0 100-1.174zM24.384 19.413h-1.99a2.474 2.474 0 00-1.807-1.808v-1.989a.587.587 0 10-1.174 0v1.99a2.474 2.474 0 00-1.808 1.807h-1.989a.587.587 0 100 1.174h1.99c.217.889.918 1.59 1.807 1.808v1.989a.587.587 0 101.174 0v-1.99a2.474 2.474 0 001.808-1.807h1.989a.587.587 0 100-1.174zM20 21.29c-.712 0-1.292-.579-1.292-1.291s.58-1.292 1.292-1.292a1.293 1.293 0 010 2.583zM29.393 19.413h-2.505a.587.587 0 100 1.174h2.505a.587.587 0 100-1.174z" fill="#fff"/><path d="M39.413 19.413h-.675a18.615 18.615 0 00-5.481-12.67 18.615 18.615 0 00-12.67-5.48V.586a.587.587 0 00-1.174 0v.675a18.615 18.615 0 00-12.67 5.481 18.615 18.615 0 00-5.48 12.67H.586a.587.587 0 000 1.174h.675a18.615 18.615 0 005.481 12.67 18.615 18.615 0 0012.67 5.48v.676a.587.587 0 001.174 0v-.675a18.615 18.615 0 0012.67-5.481 18.615 18.615 0 005.48-12.67h.676a.587.587 0 000-1.174zm-6.987 13.013a17.449 17.449 0 01-11.839 5.137v-.655a.587.587 0 00-1.174 0v.655a17.449 17.449 0 01-11.84-5.137 17.45 17.45 0 01-5.136-11.839h.655a.587.587 0 000-1.174h-.655a17.45 17.45 0 015.137-11.84 17.45 17.45 0 0111.839-5.136v.655a.587.587 0 001.174 0v-.655a17.45 17.45 0 0111.84 5.137 17.449 17.449 0 015.136 11.839h-.655a.587.587 0 000 1.174h.655a17.449 17.449 0 01-5.137 11.84z" fill="#fff"/><path d="M20 26.301a.587.587 0 00-.587.587v2.505a.587.587 0 101.174 0v-2.505a.587.587 0 00-.587-.587zM20 13.699a.587.587 0 00.587-.588v-2.504a.587.587 0 00-1.174 0v2.505c0 .324.263.587.587.587z" fill="#fff"/></svg>