<svg width="40" height="40" fill="none" xmlns="http://www.w3.org/2000/svg"><path d="M36.908 3.131H3.092A3.096 3.096 0 000 6.223v27.554a3.096 3.096 0 003.092 3.092h33.816A3.096 3.096 0 0040 33.777V6.223a3.096 3.096 0 00-3.092-3.092zm1.918 30.646a1.92 1.92 0 01-1.918 1.918H3.092a1.92 1.92 0 01-1.918-1.918V6.223a1.92 1.92 0 011.918-1.917h33.816a1.92 1.92 0 011.918 1.917v27.554z" fill="#fff"/><path d="M8.102 9.394c-1.015 0-1.84.825-1.84 1.84 0 1.013.825 1.839 1.84 1.839 1.014 0 1.84-.826 1.84-1.84 0-1.014-.826-1.84-1.84-1.84zm0 2.504a.666.666 0 11.001-1.332.666.666 0 01-.001 1.332z" fill="#fff"/><path d="M9.354 6.889h-5.01a.587.587 0 00-.587.587v5.01a.587.587 0 101.174 0V8.063h4.423a.587.587 0 000-1.174zM35.656 6.889h-5.01a.587.587 0 000 1.174h4.422v4.422a.587.587 0 101.175 0v-5.01a.587.587 0 00-.587-.586zM9.354 31.938H4.931v-4.423a.587.587 0 00-1.174 0v5.01c0 .324.263.587.587.587h5.01a.587.587 0 000-1.175zM35.656 26.928a.587.587 0 00-.588.587v4.422h-4.422a.587.587 0 000 1.175h5.01a.587.587 0 00.587-.587v-5.01a.587.587 0 00-.587-.587zM11.86 10.568h6.261a.587.587 0 100-1.174H11.86a.587.587 0 100 1.174zM13.738 11.898h-1.879a.587.587 0 100 1.175h1.879a.587.587 0 100-1.175z" fill="#fff"/><path d="M33.15 30.607a.587.587 0 000-1.174h-1.252a.587.587 0 000 1.174h1.253zM29.393 29.433h-3.757a.587.587 0 000 1.174h3.757a.587.587 0 000-1.174zM23.131 19.413h-2.544V16.87a.587.587 0 10-1.174 0v2.544h-2.544a.587.587 0 000 1.174h2.544v2.544a.587.587 0 101.174 0v-2.544h2.544a.587.587 0 000-1.174z" fill="#fff"/></svg>