<svg width="40" height="40" fill="none" xmlns="http://www.w3.org/2000/svg"><g clip-path="url(#clip0)" fill="#fff"><path d="M19.6 35.483h-2.087a2.596 2.596 0 00-1.897-1.897V16.927a2.591 2.591 0 001.972-2.512A2.59 2.59 0 0015 11.828a2.59 2.59 0 00-2.587 2.587c0 1.214.841 2.235 1.971 2.512v16.66a2.595 2.595 0 00-1.896 1.896H10.4c-1.064 0-1.93.866-1.93 1.93v1.971c0 .34.276.616.616.616h11.827c.34 0 .616-.276.616-.616v-1.971c0-1.064-.866-1.93-1.93-1.93zm-5.955-21.068a1.357 1.357 0 012.71 0c0 .747-.607 1.355-1.354 1.355a1.357 1.357 0 01-1.356-1.355zm1.356 20.328c.525 0 .98.302 1.205.74h-2.411c.225-.438.68-.74 1.206-.74zm5.297 4.025H9.703v-1.355c0-.385.313-.698.698-.698h9.2c.384 0 .697.313.697.698v1.355z"/><path d="M15 0C7.052 0 .585 6.466.585 14.415c0 3.167 1.009 6.171 2.917 8.689a14.538 14.538 0 007.38 5.121.616.616 0 00.352-1.18 13.296 13.296 0 01-6.75-4.685 13.05 13.05 0 01-2.667-7.945C1.817 7.145 7.731 1.232 15 1.232c7.27 0 13.183 5.914 13.183 13.183a13.05 13.05 0 01-2.666 7.945 13.297 13.297 0 01-6.75 4.684.616.616 0 00.352 1.181 14.538 14.538 0 007.38-5.121 14.272 14.272 0 002.916-8.69C29.415 6.467 22.949 0 15 0z"/><path d="M15 9.117a5.304 5.304 0 015.298 5.298 5.304 5.304 0 01-1.766 3.94.616.616 0 10.822.918 6.537 6.537 0 002.176-4.858c0-3.6-2.929-6.53-6.53-6.53-3.6 0-6.53 2.93-6.53 6.53 0 1.847.794 3.617 2.177 4.858a.616.616 0 10.822-.918 5.304 5.304 0 01-1.766-3.94A5.304 5.304 0 0115 9.117z"/><path d="M18.943 24.061a.614.614 0 00.246-.051 10.475 10.475 0 006.283-9.595C25.472 8.64 20.775 3.942 15 3.942c-5.774 0-10.472 4.698-10.472 10.473 0 4.16 2.466 7.926 6.283 9.595a.616.616 0 00.493-1.13 9.243 9.243 0 01-5.544-8.465c0-5.095 4.145-9.24 9.24-9.24 5.095 0 9.24 4.145 9.24 9.24a9.243 9.243 0 01-5.544 8.466.616.616 0 00.247 1.18zM25 30v10l10-5-10-5z"/></g><defs><clipPath id="clip0"><path fill="#fff" d="M0 0h40v40H0z"/></clipPath></defs></svg>