<svg width="40" height="40" fill="none" xmlns="http://www.w3.org/2000/svg"><path d="M35.656 0H4.344A4.35 4.35 0 000 4.344v31.312A4.35 4.35 0 004.344 40h31.312A4.35 4.35 0 0040 35.656V4.344A4.35 4.35 0 0035.656 0zm3.17 4.344v5.05h-8.22v-8.22h5.05a3.174 3.174 0 013.17 3.17zm-9.393 5.05h-8.846v-8.22h8.846v8.22zM4.344 1.173h5.05v3.797a.587.587 0 001.174 0V1.174h8.845v8.22H14.99a.587.587 0 100 1.174h4.423v8.845H18.12a.587.587 0 000 1.174h1.292v4.423a.587.587 0 101.174 0v-4.423h4.423a.587.587 0 000-1.174h-4.423v-8.845h8.846v4.422a.587.587 0 001.174 0v-4.422h8.219v8.845h-3.797a.587.587 0 100 1.174h3.797v7.39l-.811-.812a.584.584 0 00-.83 0 .582.582 0 000 .83l1.437 1.438h-8.015V25.01a.587.587 0 00-1.174 0v4.422H25.01a.587.587 0 000 1.175h4.422v8.219h-8.845v-3.797a.587.587 0 00-1.174 0v3.797h-8.845v-8.22h4.422a.587.587 0 000-1.174h-4.422v-8.845h1.917a.587.587 0 100-1.174h-1.917V14.99a.587.587 0 10-1.175 0v4.423H1.378l1.516-1.516a.583.583 0 000-.83.583.583 0 00-.83 0l-.89.89v-7.39h3.797a.587.587 0 100-1.174H1.174V4.344a3.174 3.174 0 013.17-3.17zm-3.17 19.413h8.22v8.846h-8.22v-8.846zm0 15.069v-5.05h8.22v8.22h-5.05a3.174 3.174 0 01-3.17-3.17zm34.482 3.17h-5.05v-8.22h8.22v5.05a3.174 3.174 0 01-3.17 3.17z" fill="#fff"/><path d="M3.95 15.188a.589.589 0 00.356 1.054.583.583 0 00.467-.23.914.914 0 00.059-.052l1.937-1.937a.589.589 0 00-.416-1.003.583.583 0 00-.415.172L4.001 15.13a.738.738 0 00-.052.058zM7.765 12.196c.06.06.132.105.21.135a3.078 3.078 0 003.194.504.588.588 0 00.384-.194 3.093 3.093 0 001.52-2.66A3.096 3.096 0 009.98 6.889 3.096 3.096 0 006.889 9.98c0 .765.28 1.466.742 2.006a.58.58 0 00.134.209zm2.216-4.133a1.92 1.92 0 011.918 1.918 1.92 1.92 0 01-1.918 1.918A1.92 1.92 0 018.063 9.98 1.92 1.92 0 019.98 8.063zM16.646 24.625l1.226 2.45a.598.598 0 00.04.069.585.585 0 00.315.346A3.09 3.09 0 0020 33.111a3.096 3.096 0 003.092-3.092c0-.7-.234-1.346-.627-1.864v-.015a.581.581 0 00-.171-.415.581.581 0 00-.415-.172h-.015a3.076 3.076 0 00-2.824-.473.58.58 0 00-.087-.458.544.544 0 00-.031-.072l-1.225-2.45a.585.585 0 00-.788-.263.587.587 0 00-.262.787zm5.272 5.395A1.92 1.92 0 0120 31.937a1.92 1.92 0 01-1.918-1.917A1.92 1.92 0 0120 28.102a1.92 1.92 0 011.918 1.918zM14.197 19.724l1.225 2.451a.514.514 0 00.04.067.584.584 0 00.817.335c.14-.07.245-.19.294-.34a.582.582 0 00-.071-.515.587.587 0 00-.03-.072l-1.226-2.451a.584.584 0 00-.787-.262.58.58 0 00-.295.339.58.58 0 00.033.448zM12.27 13.974a.583.583 0 00-.524.85l1.225 2.45a.514.514 0 00.04.068.584.584 0 00.818.335.584.584 0 00.222-.856.448.448 0 00-.03-.072l-1.225-2.45a.585.585 0 00-.526-.325zM27.165 22.025a.58.58 0 00-.172.415c0 .157.06.305.172.415.11.111.258.172.415.172a.582.582 0 00.415-.172l.294-.294c.494.335 1.09.531 1.73.531.7 0 1.346-.234 1.865-.627h.014a.581.581 0 00.415-.171.582.582 0 00.172-.415v-.015A3.076 3.076 0 0033.112 20a3.096 3.096 0 00-3.092-3.092A3.096 3.096 0 0026.928 20c0 .641.196 1.237.53 1.731l-.293.294zm2.855-3.943A1.92 1.92 0 0131.938 20a1.92 1.92 0 01-1.918 1.918A1.92 1.92 0 0128.102 20a1.92 1.92 0 011.918-1.918zM23.705 26.902a.586.586 0 00.415-.172l1.938-1.938a.626.626 0 00.052-.06.583.583 0 00.059-.881.583.583 0 00-.883.06.609.609 0 00-.059.05L23.29 25.9a.583.583 0 000 .83c.111.111.258.173.415.173zM35.247 26.058a.785.785 0 00.06.052.583.583 0 00.881.059.589.589 0 00-.059-.883.875.875 0 00-.052-.059L34.14 23.29a.583.583 0 00-.83 0 .586.586 0 000 .83l1.937 1.938z" fill="#fff"/></svg>